<svg xmlns="http://www.w3.org/2000/svg" xmlns:xlink="http://www.w3.org/1999/xlink" viewBox="0 0 2308.61 1263.62"><defs><style>.cls-1{fill:#f5f6fa;}.cls-2{fill:#e2eaf5;}.cls-3{fill:#edf2f9;}.cls-4{fill:#92c9f7;}.cls-5{fill:#e3f8ff;}.cls-6{fill:#f6fbff;}.cls-7{fill:#bbe6f9;}.cls-8{fill:#f0f3f7;}.cls-9{fill:#0f6e72;}.cls-10{fill:url(#linear-gradient);}.cls-11{fill:#fff;}.cls-12{fill:url(#linear-gradient-2);}.cls-13{fill:#d40d12;}.cls-14{fill:url(#linear-gradient-3);}.cls-15{fill:#f2f2f2;}.cls-16{fill:url(#linear-gradient-4);}.cls-17{fill:#ff6c6c;}.cls-18{fill:#a9e27d;}.cls-19{fill:#ffdc36;}.cls-20{fill:url(#linear-gradient-5);}.cls-21{fill:url(#linear-gradient-6);}.cls-22{fill:url(#linear-gradient-7);}.cls-23{fill:#f26f05;}.cls-24{fill:#db5e00;}.cls-25{fill:#1c3a54;}.cls-26{fill:#29427b;}.cls-27{fill:#f9ba2d;}.cls-28{fill:#f9cc9f;}.cls-29{fill:#9ad4d8;}.cls-30{fill:#e04b56;}.cls-31{fill:#0c336b;}.cls-32{fill:#113b84;}.cls-33{fill:#f4605e;}.cls-34{fill:#e5ac7f;}.cls-35{fill:#f4bd8c;}.cls-36{fill:#ffdf5a;}.cls-37{fill:#f9a78a;}.cls-38{fill:#dbe0fe;}.cls-39{fill:#ce6bdd;}.cls-40{fill:#f5c34a;}.cls-41{fill:#556784;}.cls-42{fill:#465572;}.cls-43{fill:#fdc78b;}</style><linearGradient id="linear-gradient" x1="1240.1" y1="316.94" x2="1240.1" y2="1711.45" gradientUnits="userSpaceOnUse"><stop offset="0" stop-color="#47b6b0"/><stop offset="1" stop-color="#2e7c86"/></linearGradient><linearGradient id="linear-gradient-2" x1="970.64" y1="741.77" x2="1496.98" y2="741.77" xlink:href="#linear-gradient"/><linearGradient id="linear-gradient-3" x1="1229.07" y1="741.77" x2="1659.01" y2="741.77" xlink:href="#linear-gradient"/><linearGradient id="linear-gradient-4" x1="1075.18" y1="523.18" x2="2053.46" y2="523.18" xlink:href="#linear-gradient"/><linearGradient id="linear-gradient-5" x1="1240.1" y1="424.94" x2="1240.1" y2="991.64" xlink:href="#linear-gradient"/><linearGradient id="linear-gradient-6" x1="1240.1" y1="1057.17" x2="1240.1" y2="1324.36" xlink:href="#linear-gradient"/><linearGradient id="linear-gradient-7" x1="1240.1" y1="884.45" x2="1240.1" y2="1013.65" gradientTransform="translate(996.3 -614.65) rotate(45)" xlink:href="#linear-gradient"/></defs><g id="Layer_2" data-name="Layer 2"><g id="Layer_2-2" data-name="Layer 2"><path class="cls-1" d="M2308.61,1014.63s-61.81,137.66-342,104.18-403.17,196.67-792.91,133.9-273.29-114.5-735.35-128.38S1,1014.63,1,1014.63Z"/><path class="cls-2" d="M1,1014.63s-24.6-189.51,173.2-236.15S318.79,317.6,592.62,309.23,869,269.48,1002.68,133.49,1338.5-69.45,1510.43,104.2s169.88,230.14,406.82,328.47,232.82,274,239,379.67,144,120.43,152.34,202.29Z"/><path class="cls-3" d="M2170.45,860.75c-41.2-11.85-89.56-19.87-145.57-23.13-252.47-14.71-265.17-4.89-435-230.25s-390-226.2-531.82-105.88S794.33,643.58,588.88,633.68,396.7,872.78,199.93,880.11,23,1014.63,23,1014.63H2308.59C2301.7,947.25,2207.13,925.35,2170.45,860.75Z"/><path class="cls-4" d="M166.09,922.18c-8.66-29.89,39.69-39.79,26.34-81.85s11.64-128,56.67-129.28,77.12,181,42.67,220.74S174.75,952.06,166.09,922.18Z"/><path class="cls-5" d="M236.58,997.73l-1.86-.31c14.6-88.93,7-229.1,6.94-230.51l1.88-.1C243.62,768.21,251.21,908.59,236.58,997.73Z"/><path class="cls-5" d="M243.86,916.54l-1-1.57c35-23,34.15-49.59,34.14-49.85l1.88-.1C278.86,865.3,279.81,893,243.86,916.54Z"/><path class="cls-5" d="M244.46,865.59C223.71,860.67,216,839.19,216,839l1.78-.61c.07.2,7.44,20.72,27.16,25.4Z"/><path class="cls-5" d="M245,814l-.73-1.73c26.26-11,27.95-31.49,28-31.7l1.88.13C274.13,780.94,272.43,802.53,245,814Z"/><path class="cls-6" d="M60.78,1014.63S73.2,947,194,943.62s80.51-90.2,252-66.9,196.81,24.91,357.84-63.11S1021,700.16,1209.65,762s293.39,81.43,438,17.3,77.53,86,244.52,88.46,85.48,63.11,193.83,78,132.2,43.33,136.17,68.88Z"/><path class="cls-7" d="M288.65,897.15c-11.83-40.83,54.22-54.35,36-111.81s15.9-174.91,77.42-176.6S507.4,856,460.34,910.28,300.48,938,288.65,897.15Z"/><path class="cls-5" d="M385,1000.35l-2.54-.42C402.35,878.45,392,687,391.88,685l2.57-.14C394.56,686.82,404.94,878.58,385,1000.35Z"/><path class="cls-5" d="M394.9,889.45l-1.41-2.15c47.88-31.43,46.65-67.74,46.63-68.1l2.57-.13C442.7,819.45,444,857.22,394.9,889.45Z"/><path class="cls-5" d="M395.71,819.85c-28.34-6.72-38.85-36.07-38.95-36.36l2.43-.85c.1.28,10.17,28.31,37.11,34.71Z"/><path class="cls-5" d="M396.5,749.41l-1-2.37c35.87-15.06,38.17-43,38.19-43.29l2.57.17C436.25,704.21,433.91,733.7,396.5,749.41Z"/><path class="cls-4" d="M1986.53,910.57c-8.66-29.89,39.69-39.78,26.34-81.85s11.64-128,56.67-129.27,77.12,181,42.67,220.74S1995.19,940.46,1986.53,910.57Z"/><path class="cls-5" d="M2057,986.12l-1.86-.31c14.6-88.93,7-229.1,6.93-230.51l1.88-.1C2064.06,756.61,2071.66,897,2057,986.12Z"/><path class="cls-5" d="M2064.31,904.94l-1-1.58c35-23,34.15-49.59,34.13-49.85l1.88-.1C2099.31,853.69,2100.25,881.34,2064.31,904.94Z"/><path class="cls-5" d="M2064.9,854c-20.74-4.92-28.43-26.4-28.51-26.61l1.78-.62c.07.2,7.44,20.72,27.17,25.4Z"/><path class="cls-5" d="M2065.49,802.42l-.73-1.73c26.26-11,27.94-31.49,28-31.69l1.87.12C2094.58,769.34,2092.87,790.92,2065.49,802.42Z"/><path class="cls-7" d="M1837.7,883.68c-11.83-40.83,54.22-54.35,36-111.81s15.9-174.91,77.41-176.6,105.35,247.26,58.3,301.54S1849.53,924.51,1837.7,883.68Z"/><path class="cls-5" d="M1934,986.88l-2.53-.41c19.94-121.49,9.58-313,9.47-314.89l2.57-.15C1943.61,673.36,1954,865.12,1934,986.88Z"/><path class="cls-5" d="M1944,876l-1.42-2.15c47.89-31.43,46.65-67.74,46.64-68.1l2.56-.13C1991.75,806,1993,843.75,1944,876Z"/><path class="cls-5" d="M1944.76,806.38c-28.34-6.72-38.85-36.06-39-36.36l2.43-.85c.1.29,10.17,28.31,37.11,34.71Z"/><path class="cls-5" d="M1945.55,736l-1-2.37c35.88-15.07,38.18-43,38.2-43.3l2.57.17C1985.3,690.74,1983,720.23,1945.55,736Z"/><path class="cls-2" d="M2130.53,1014.63c-8.18-74-140.92-33.3-225.91-75s-76-46.22-216.49,10.93S1505,979.84,1395.87,925.06s-156.22,5.58-301.49,57.8-185.73,13.38-287.24-43.28S665.63,881.43,571.7,956.73s-123.75,47-215,6.79-104,51.11-104,51.11Z"/><path class="cls-8" d="M221.16,432.77H726.47s10.14-35.49-81.12-25.35S556.19,284.05,464.73,290.81s-33.06,98-139.16,99.71S221.16,432.77,221.16,432.77Z"/><path class="cls-8" d="M2042.3,382.69H1588.42s-9.11-32.92,72.87-23.51S1741.37,244.73,1823.52,251s29.7,90.93,125,92.5S2042.3,382.69,2042.3,382.69Z"/><path class="cls-2" d="M542,1086.31H289.38a24.61,24.61,0,0,1-24.61-24.61h0a24.61,24.61,0,0,1,24.61-24.62H542a24.62,24.62,0,0,1,24.62,24.62h0A24.61,24.61,0,0,1,542,1086.31Z"/><rect class="cls-2" x="518.07" y="1050.17" width="271.27" height="49.23" rx="24.61"/><path class="cls-2" d="M1280.92,1197.5h-222a24.61,24.61,0,0,1-24.61-24.62h0a24.61,24.61,0,0,1,24.61-24.61h222a24.61,24.61,0,0,1,24.62,24.61h0A24.62,24.62,0,0,1,1280.92,1197.5Z"/><path class="cls-2" d="M1424.9,1102.58H1202.85a24.61,24.61,0,0,1-24.61-24.61h0a24.61,24.61,0,0,1,24.61-24.61H1424.9a24.61,24.61,0,0,1,24.61,24.61h0A24.61,24.61,0,0,1,1424.9,1102.58Z"/><rect class="cls-2" x="1576.68" y="1049.52" width="243.36" height="49.23" rx="24.61"/><rect class="cls-2" x="1800.48" y="1045.09" width="243.36" height="49.23" rx="24.61"/><path class="cls-2" d="M1706.49,1052.26H816.42a24.61,24.61,0,0,1-24.61-24.61h0A24.61,24.61,0,0,1,816.42,1003h890.07a24.61,24.61,0,0,1,24.61,24.62h0A24.61,24.61,0,0,1,1706.49,1052.26Z"/><polygon class="cls-9" points="1351.04 1004.57 1129.17 1004.57 1158.02 873.13 1322.18 873.13 1351.04 1004.57"/><path class="cls-10" d="M866.71,311.62h746.78a57,57,0,0,1,57,57V850.89a0,0,0,0,1,0,0H809.68a0,0,0,0,1,0,0V368.65A57,57,0,0,1,866.71,311.62Z"/><rect class="cls-11" x="851.93" y="355.14" width="776.34" height="463.82"/><circle class="cls-12" cx="965.37" cy="741.77" r="39.01"/><circle class="cls-13" cx="1095.42" cy="741.77" r="39.01"/><circle class="cls-14" cx="1225.47" cy="741.77" r="39.01"/><rect class="cls-15" x="1319.37" y="430.32" width="289.8" height="361.1" rx="14.76"/><path class="cls-13" d="M1597.77,430.32h-267c-6.28,0-11.41,4.53-11.41,10.06V559.82c15.61,3.88,51.36-26.05,59.83-24.55,14.51,2.58,51.8-13.9,67.8-17.23s6.58,26.08,29.38,22.06c34.66-6.11,50.36,18.81,68.76,16.1,13.32-2,33.27,35.13,62.72,34.86l1.31-150.68C1609.17,434.85,1604,430.32,1597.77,430.32Z"/><rect class="cls-16" x="922.56" y="432.74" width="332.98" height="180.87" rx="12.98"/><rect class="cls-11" x="943.14" y="453.1" width="131.71" height="140.14" rx="21.14"/><rect class="cls-11" x="1098.28" y="469.37" width="94.82" height="20.83" rx="8.8"/><rect class="cls-11" x="1098.28" y="512.76" width="137.9" height="20.83" rx="8.8"/><rect class="cls-11" x="1098.28" y="556.15" width="137.9" height="20.83" rx="8.8"/><rect class="cls-15" x="851.93" y="355.35" width="776.34" height="57.94"/><circle class="cls-17" cx="898.74" cy="386.07" r="10.33" transform="translate(315.37 1171.22) rotate(-76.63)"/><circle class="cls-18" cx="950.07" cy="386.07" r="10.33" transform="translate(354.84 1221.16) rotate(-76.63)"/><circle class="cls-19" cx="1001.41" cy="386.07" r="10.33" transform="translate(20.32 821.18) rotate(-45)"/><path class="cls-20" d="M809.68,850.89v47.46a41.41,41.41,0,0,0,41.41,41.41h778a41.41,41.41,0,0,0,41.4-41.41V850.89Z"/><path class="cls-21" d="M1451,1029.92H1029.24a37.56,37.56,0,0,1,37.56-37.55h346.6a37.56,37.56,0,0,1,37.56,37.55Z"/><circle class="cls-22" cx="1240.1" cy="895.32" r="15.82" transform="translate(-269.87 1139.12) rotate(-45)"/><path class="cls-23" d="M1154.46,988.32l-59,174.37c0,13.33,141.62,13.53,141.61,0l-59-174.37C1174.18,977.07,1158.27,977.07,1154.46,988.32Z"/><path class="cls-11" d="M1138.81,1034.53l-11.87,35.08a641.64,641.64,0,0,0,78.57,0l-11.88-35.08Q1166.21,1035.77,1138.81,1034.53Z"/><path class="cls-11" d="M1117.18,1098.43l-11.77,34.77a643.53,643.53,0,0,0,121.63,0l-11.77-34.77A608.42,608.42,0,0,1,1117.18,1098.43Z"/><path class="cls-24" d="M1258.84,1174.39H1073.6a13.59,13.59,0,0,1,13.6-13.59h158a13.58,13.58,0,0,1,13.59,13.59Z"/><path class="cls-23" d="M1918.42,884.18l-59,174.37c0,13.33,141.62,13.53,141.61,0l-59-174.37C1938.14,872.93,1922.23,872.93,1918.42,884.18Z"/><path class="cls-11" d="M1902.77,930.39l-11.87,35.08a643.65,643.65,0,0,0,78.57,0l-11.88-35.08C1939.3,931.21,1921.06,931.21,1902.77,930.39Z"/><path class="cls-11" d="M1881.14,994.29l-11.78,34.77a643.64,643.64,0,0,0,121.64,0l-11.77-34.77A608.42,608.42,0,0,1,1881.14,994.29Z"/><path class="cls-24" d="M2022.8,1070.25H1837.56a13.6,13.6,0,0,1,13.6-13.6h158a13.59,13.59,0,0,1,13.59,13.6Z"/><polygon class="cls-25" points="433.19 1058.09 394.74 1058.09 340.74 853.38 379.19 853.38 433.19 1058.09"/><polygon class="cls-25" points="549.76 1058.09 511.31 1058.09 457.31 853.38 495.76 853.38 549.76 1058.09"/><polygon class="cls-26" points="426.12 1058.09 464.56 1058.09 493.2 853.38 454.76 853.38 426.12 1058.09"/><polygon class="cls-26" points="309.55 1058.09 347.99 1058.09 376.63 853.38 338.18 853.38 309.55 1058.09"/><rect class="cls-23" x="292.18" y="880.59" width="247.05" height="46.2" transform="translate(831.42 1807.39) rotate(180)"/><polygon class="cls-11" points="521.92 926.79 468.84 926.79 422.64 880.59 475.71 880.59 521.92 926.79"/><polygon class="cls-11" points="312.2 880.59 365.28 880.59 411.48 926.79 358.41 926.79 312.2 880.59"/><rect class="cls-23" x="292.18" y="963.08" width="247.05" height="46.2" transform="translate(831.42 1972.35) rotate(180)"/><polygon class="cls-11" points="521.92 1009.28 468.84 1009.28 422.64 963.08 475.71 963.08 521.92 1009.28"/><polygon class="cls-11" points="312.2 963.08 365.28 963.08 411.48 1009.28 358.41 1009.28 312.2 963.08"/><circle class="cls-26" cx="473.99" cy="843.06" r="27.34" transform="matrix(0.81, -0.58, 0.58, 0.81, -403.48, 436.28)"/><path class="cls-27" d="M457.31,843.06A16.69,16.69,0,1,0,474,826.38,16.68,16.68,0,0,0,457.31,843.06Z"/><circle class="cls-26" cx="357.42" cy="843.06" r="27.34" transform="translate(-295.42 200.95) rotate(-22.5)"/><circle class="cls-27" cx="357.42" cy="843.06" r="16.69"/><path class="cls-28" d="M783.7,641.63c-.75-6.11-3.25-8.6-6.84-9.81s-7.27-1.28-9.6,2a17.83,17.83,0,0,0-2.28,6.25c-.93-.3-3.78-.84-4.81,3.47-2.2,9.2,1.17,13.22.47,15.29-1.5,4.43-28.59,41.37-35.71,49.16a2.12,2.12,0,0,0-.63.5c-.86,1.55-27.08,19.61-43,33s1.67,25.93,23,15c12.57-6.43,27.54-17,37.8-27.47h0c22-17.88,35.08-70.9,35.08-70.9S784.45,647.73,783.7,641.63Z"/><rect class="cls-29" x="691.48" y="604.12" width="405.98" height="112.55" rx="11.31"/><rect class="cls-11" x="713.43" y="621.14" width="108.08" height="73.83" rx="13.9"/><path class="cls-13" d="M745.52,658.28V643.71a6.22,6.22,0,0,1,9.33-5.38l12.61,7.28,12.62,7.28a6.22,6.22,0,0,1,0,10.77L767.46,671l-12.61,7.28a6.22,6.22,0,0,1-9.33-5.38Z"/><rect class="cls-11" x="854.18" y="635" width="96.04" height="13.73" rx="3.59"/><rect class="cls-11" x="854.18" y="668.56" width="225.63" height="14.29" rx="3.59"/><path class="cls-30" d="M694.65,717.22s14.82,1.3,18.59-1.48,7.9-5.88,7.9-5.88,8.68,5.53,11.74,13.27A32.46,32.46,0,0,1,735.33,737s-13.48,13.84-23,15.82S684,726.85,694.65,717.22Z"/><path class="cls-31" d="M711.51,1066.81l1.71,16c4.83,1.56,38-4.94,39.1-6.23s-24.09-9.37-24.09-9.37Z"/><path class="cls-31" d="M740,932.79l-33-86.61-55.31,11.29c-4.4,32.07,14,47.78,32.4,69.42,16.21,19.11,19.5,27.23,20,28.87-1.51,6.49-2.6,15.77-1.76,28.34,2,29.23,9.1,82.71,9.1,82.71l16.72.44,18.74-101C748.72,954.23,740,932.79,740,932.79Z"/><path class="cls-32" d="M586.12,1053,580,1067.91c3.5,3.66,35.76,13.72,37.35,13.11s-16.73-19.7-16.73-19.7Z"/><path class="cls-32" d="M706.83,849.69l-35,2.45-38.64-11.73c-19.14,26.11-10.39,48.71-4.54,76.48,5.16,24.52,4.19,33.22,3.89,34.92-4.42,5-9.79,12.64-15,24.1-12.18,26.63-31.34,77.07-31.34,77.07l14.49,8.34,64.54-79.92c7.26-9.74,9.79-32.74,9.79-32.74l8-60.47Z"/><path class="cls-32" d="M634,818.45s-1.24-61.56,9.79-83.21c3.83-3,7.72-6,11.56-9a.56.56,0,0,0,.21-.32,127.49,127.49,0,0,1,20.57-6.62s15-2,23.86,6.65c5.19,5,12.09,12.18,14.86,31.5,5.39,37.6-8,92.2-8,92.2s-14.19,5.76-35.7,4.14a243.43,243.43,0,0,1-42-7.39Z"/><path class="cls-33" d="M673.94,748.52s4.19,8.24,5.2,22.13c.19,2.55.27,4.62.27,6.29,0,5.51,32.63,2.08,32.69-4.7a71.41,71.41,0,0,0-2.44-19.36c-5.11-18.54-10.52-20-10.52-20Z"/><path class="cls-33" d="M669.5,752.88l-22.68-20c-1,.79-2,1.57-3.05,2.37-4.46,8.75-7.19,23.55-8.75,45.41,3.9,4.5,3.13,3.78,5.24,5.76,10.26,9.64,27.89,9.26,31.07-2.89S669.5,752.88,669.5,752.88Z"/><path class="cls-25" d="M676.54,714.27s-3.53,1.27-13.59-1.7-16.7-8.4-19.34-15.38.58-9.52.58-9.52-4.58-6.78,1.08-16.75c6.34-11.15,26.52-24.33,41.21-12.47,15.86,12.79,8.25,28.32,8.25,28.32Z"/><path class="cls-34" d="M670.4,707.57s-6.73,16.21-6.5,16.79,2.9,1.62,9.75,2.23a30.91,30.91,0,0,0,14.66-2s-3.21-5.07-3.2-6.79,3.2-8.07,3.2-8.07Z"/><path class="cls-35" d="M686.34,673s3.58,1.19,8.11,13,4.69,24-6.06,28.86-20.85-7.76-20.85-7.76a8.53,8.53,0,0,1-6.55.78c-4.12-.94-5.21-5.79-5-7.68a4.78,4.78,0,0,1,6.11-3.38c3.32,1,4.93,4.45,6.41,5.74s2.06,1.53,1.74.41-1.95-5.71-1.07-7.58,10.53-9.81,13.14-16.53S686.34,673,686.34,673Z"/><path class="cls-28" d="M646.1,744.57,650,733.14c17.1-11.91,34.76-19.38,35.76-20.85a.81.81,0,0,1,.23-.19c2.71-3.25,19.16-48.2,19.35-53.26.09-2.19-4.28-5.09-4.78-14.54-.23-4.42,2.65-4.71,3.63-4.68a17.75,17.75,0,0,1,.41-6.64c1.32-3.79,4.86-4.77,8.64-4.63s6.9,1.83,9.35,7.47-1.57,17.64-1.57,17.64,1,46.24-6,64.28c-4.55,13.69-32.56,32.12-53.51,40.55C639.28,767.25,646.1,744.57,646.1,744.57Z"/><path class="cls-17" d="M670.31,720.76s-3.76,7,2.38,18c4.91,8.81,10.3,8.71,10.3,8.71s-15.13,15.08-28.87,17.09c-15.24,2.24-18.6-21.86-9.36-31.17C655.17,723,670.31,720.76,670.31,720.76Z"/><path class="cls-27" d="M652.73,649.47a29.69,29.69,0,0,1,36.84,11.35c5.65-.73,9.57-.15,10.49,2,2,4.49-10.41,14.18-27.6,21.62s-32.71,9.83-34.66,5.33C631.29,674.68,637.68,656,652.73,649.47Z"/><path class="cls-36" d="M636.88,687.27c16.62,1.81,33.37-5.14,47.68-13.53s11.19-12.88,11-13.13c2.36.23,4,.92,4.5,2.17,2,4.49-10.41,14.18-27.6,21.62s-32.71,9.83-34.66,5.33C637.45,688.92,637.16,688.1,636.88,687.27Z"/><path class="cls-36" d="M685.3,663.91s-4.93-17.68-20.68-18.13-21.53,10.66-21.53,10.66S656,647,665.5,649.88,681,666.94,681,666.94A33,33,0,0,0,685.3,663.91Z"/><path class="cls-35" d="M1678.49,725.7s-24.88,13.41-31.48,12.18l17-40.14s11.16-12.67,5.54-26.52c-1.72-4.23-20.51,2.26-23.13,9.47s2,10.24.28,18.76c-1.24,6.06-36.49,52.88-25.46,67.48s42,1.6,42,1.6Z"/><path class="cls-11" d="M1696.6,716.57c-21.93,4.52-36.68,13.81-47.36,17.61,0,0-18.55,51.09,28.26,44.77l9.92-40Z"/><polygon class="cls-37" points="1691.33 1051.66 1690.93 1060.82 1674.21 1064.99 1673.93 1049.62 1691.33 1051.66"/><path class="cls-31" d="M1669.43,853.94s-9.25,68.1-6.9,115.22a780.65,780.65,0,0,0,8.93,85.35l21.55.93s10.27-145.18,16.25-172l6-26.81Z"/><path class="cls-32" d="M1669.43,853.94s3.3,12.32,26.82,13.94l-2.46-13.94Z"/><polygon class="cls-37" points="1731.8 1053.5 1733.91 1063.94 1750.57 1061.16 1749.3 1047.91 1731.8 1053.5"/><path class="cls-33" d="M1669.43,853.94h84.83l7.64-91.26a50.63,50.63,0,0,0-50.63-50.63h0c-28,0-38.89,20.73-38.89,48.69Z"/><path class="cls-11" d="M1699.13,718.79A41.32,41.32,0,0,0,1691,738a29.56,29.56,0,0,0-.23,3.68c0,12.72,5.88,32.21,5.88,32.21s26-39.24,29.45-46.51c4.08-8.56,2.89-10.49-3.49-12.88S1699.13,718.79,1699.13,718.79Z"/><path class="cls-32" d="M1705,761l-.77-17.73-6.73-1.54-5.81,10.68a182.57,182.57,0,0,0,4.9,21.41l8.41-12.81Z"/><path class="cls-7" d="M1691.31,735.72l15.52-7.53L1701.3,718c-1.35.48-2.17.81-2.17.81A42,42,0,0,0,1691.31,735.72Z"/><path class="cls-7" d="M1706.83,728.19l10.27,13.58s11.21-13.57,13.32-18.46-5.88-9.4-9.59-9.36S1706.83,728.19,1706.83,728.19Z"/><path class="cls-35" d="M1699.13,721.07c0,10,24.28,10,24.28,0l-2.67-20.73H1701.8Z"/><rect class="cls-28" x="1687.64" y="661.04" width="44.91" height="55.05" rx="22.45" transform="translate(3277.98 1658.23) rotate(-170.2)"/><path class="cls-25" d="M1722.42,652.34l5.9,1a8,8,0,0,1,6.56,9.3l-.27,1.54a8,8,0,0,1,6.56,9.3l-5.55,32.16a5.43,5.43,0,1,1-10.23-3.32l4.88-10a10.37,10.37,0,0,0-5.14-10.81,4.81,4.81,0,0,1-2.39-5,4.84,4.84,0,0,0-3.93-5.58l-17.28-3h0C1697.11,667.23,1722.42,652.34,1722.42,652.34Z"/><path class="cls-28" d="M1726.15,691.34a7,7,0,1,0,8.09-5.71A7,7,0,0,0,1726.15,691.34Z"/><path class="cls-32" d="M1754.26,853.94c1.36,1.13,1.57,27.63-7.14,100.49,0,0,1.31,45.18,3.49,99.26l-18.84,1.75s-24-94.06-32.2-130.56c-7.22-32.14-9.52-40.35-12-70.94Z"/><polygon class="cls-38" points="1622.66 724.6 1622.66 790.68 1661.16 802.43 1661.16 728.59 1622.66 724.6"/><path class="cls-28" d="M1645.52,757.52c11,8.33,12.19,7.5,14,2.57s5.69-.53,4.93,5.13-2.9,8.26,2.75,11.2c40.83,21.24,74.37,13,74.37,13a10.23,10.23,0,0,0,7.89-6.5l23.21,10c-2.56,33.71-41.28,26.93-41.28,26.93s-29.53,1.11-71.08-36.07c0,0-11.07-.25-19.34-14.21S1634.5,749.19,1645.52,757.52Z"/><path class="cls-33" d="M1736.72,718.91c24,6.68,38,45.94,41.23,77-23.59,3.95-38.36-7-38.36-7C1728.32,748.76,1728.32,716.57,1736.72,718.91Z"/><path class="cls-11" d="M1778,795.86c-2.52-24.1-10.5-54.09-27.07-68.46-4.78.42-12.49,2.87-15.61,14.75-3.91,14.87,2.16,39,3.88,45.22.15.51.3,1,.44,1.54C1739.59,788.91,1754.36,799.81,1778,795.86Z"/><path class="cls-35" d="M1669.84,672s-2-16.31-6.16-19.38,2,16.21-.39,17.63S1669.84,672,1669.84,672Z"/><path class="cls-27" d="M1724.26,641.9A29.67,29.67,0,0,0,1689.71,659c-5.7.18-9.48,1.38-10,3.6-1.2,4.76,12.54,12.34,30.7,16.95s33.86,4.49,35.06-.26C1749.45,663.37,1740.16,645.94,1724.26,641.9Z"/><path class="cls-36" d="M1745.94,676.69c-16.12,4.44-33.76.25-49.23-5.75s-13.09-10.93-13-11.21c-2.29.6-3.76,1.54-4.1,2.85-1.2,4.76,12.54,12.34,30.7,16.95s33.86,4.49,35.06-.26C1745.64,678.41,1745.8,677.55,1745.94,676.69Z"/><path class="cls-36" d="M1694.41,661.35s2-18.24,17.53-21.2,23,7.1,23,7.1-14.21-7.31-23.17-2.91-12.52,19.31-12.52,19.31A32.75,32.75,0,0,1,1694.41,661.35Z"/><polygon class="cls-32" points="1697.51 732.72 1697.51 741.77 1704.24 743.31 1712.52 735.72 1706.83 728.19 1697.51 732.72"/><path class="cls-31" d="M1690.93,1060.82l1.35,18.35c-5.18,2.5-42.48,0-43.93-1.27s25.64-14.29,25.64-14.29Z"/><path class="cls-32" d="M1750.57,1061.16l1.35,18.34c-5.19,2.51-42.48,0-43.94-1.26s25.65-14.3,25.65-14.3Z"/><polygon class="cls-39" points="1510.38 534.49 1545.89 568.23 1580.13 536.53 1572.16 528.96 1564.62 534.56 1570.13 527.04 1564.15 521.35 1549.77 534.14 1562.35 519.64 1545.7 503.82 1533.5 516.93 1544.35 502.53 1539.76 498.17 1510.38 534.49"/><path class="cls-40" d="M1510.38,534.49s34.9,33.42,35.51,33.74l10-9.23c-3.61-8.87.53-13.09-4.49-16.27-6.89-4.38-10.95-3.08-17.86-15.55a21.57,21.57,0,0,0-9.78-9.19Z"/><rect class="cls-41" x="1496.66" y="548.56" width="48.97" height="20.3" transform="translate(803.29 -894.12) rotate(43.54)"/><path class="cls-42" d="M1531.9,582.94l-17.75-16.87-17.75-16.86a3.42,3.42,0,0,0-.92,4.48c1.5,2.75,7.63,13.2,2.48,20.51s-40.83,31.72-30.77,41.29,32.63-27.32,39.67-32.84,17.79.08,20.61,1.43A3.42,3.42,0,0,0,1531.9,582.94Z"/><path class="cls-25" d="M1381.84,1077.14l6.68-1-60.3-497.35-6.69,1,8.58,70.75H1202.28l-8.7-71.76-6.69,1,60.31,497.34,6.68-1-2.31-19.12H1379.4ZM1239.38,956.5h127.83l5.07,41.77H1244.44Zm103-204.8H1214.54l-4.91-40.51h127.84Zm.91,7.5,5.09,42H1220.55l-5.1-42Zm6,49.51,5,41H1226.43l-5-41Zm5.88,48.51,4.95,40.76H1232.28l-4.94-40.76Zm5.86,48.27L1366.3,949H1238.47l-5.28-43.51Zm-30-247.44,5.54,45.64H1208.72l-5.53-45.64Zm-80.36,391.47-5.31-43.75h127.84l5.3,43.75Z"/><path class="cls-31" d="M1357.24,982.57s7.81-51.14,10.82-77.79-4.26-37.49-4.26-37.49l-.08,0c-.35-3-.64-11.57,3-31,4.79-25.55,17.28-57.18-.76-80.7l-49.59,9.25,10.53,113.49h0v.07l.12,1.26,0,0L1342,986Z"/><path class="cls-32" d="M1362.24,751.61l-58.09-4.27-66.24,59.41s-16.32,16.83-11.64,29.29l36,95.86,15-3.08s-2.12-49.37-5-76a95.15,95.15,0,0,0-4.64-21.44c1.42-1.33,7.78-6.49,28.31-15C1319.94,806.48,1361.55,806.78,1362.24,751.61Z"/><path class="cls-43" d="M1368.49,657.29s-7,16.53,14.87,19.18,55.08-.24,62.44-10.68-21.24-16.25-22.68-15.52-28.57-8.16-47.54-6.17Z"/><path class="cls-28" d="M1491,601a143.46,143.46,0,0,1-15,2.86c-3.58.51-4.37-1.57-4.83-3.36a.59.59,0,0,1,.14-.52l3.69-4a.58.58,0,0,0-.52-1,13.4,13.4,0,0,0-10.62,8.8l0,.08c-2.95,4.92-.47,10.62-1.4,12.16-2.37,3.94-34.72,32.14-38.93,34.13a.56.56,0,0,0-.33.59c.44,3.25,3.44,21.32,15,20,12.28-1.36,35.92-45.95,37.44-48.83a.56.56,0,0,1,.21-.22c1.15-.66,9.11-5.43,13.31-12.73C1492,604,1493.34,600.45,1491,601Z"/><path class="cls-17" d="M1476,624.75l-14.88-8.83c-2.39,4-34.21,32.87-37.74,34.3a.71.71,0,0,0-.27,0c-1.45.74-34.37-10.4-56.74-12.09l2.11,19.11s-7,16.53,14.87,19.18c18.56,2.25,45.37.5,57.51-6.5C1454.1,663.66,1476,624.75,1476,624.75Z"/><path class="cls-33" d="M1350.39,634.23s23.36,1.85,35.18,9.69c17.51,11.62,12.12,47.22,3.57,77.29a193.81,193.81,0,0,1-18.93,44.19s-11.78.83-31.46-.86-36.52-12.84-36.52-12.84,3.8-11,4-28.84c.06-4.26.15-8.14.27-11.67,1-29.18,3.78-35.32,3.33-51.52-.49-17.87-1.8-14,3.19-18.31C1321.27,634.23,1350.39,634.23,1350.39,634.23Z"/><path class="cls-28" d="M1387.28,600.92s2.87,31.6-10.27,34.53c-10.28,2.29-20-9.72-20-9.72S1372.89,593.84,1387.28,600.92Z"/><path class="cls-35" d="M1374.77,635.71c-3.91-4.71-2.46-13.68-2.46-13.68s-7.33-7.86-12.39-1.53c-.67,1.12-1.24,2.12-1.7,2.94-.1.23-.2.46-.3.71a7.3,7.3,0,0,0-.48,2.09C1359.27,628.32,1366.64,636,1374.77,635.71Z"/><path class="cls-28" d="M1354.72,620.35s-8.79,11.64-9.61,15.61c-.12.56,3.77,5.28,10,5.9,10.34,1,11.27-1.7,11.27-1.7s-.29-2.27.71-9.09c.8-5.45,2-7.44,2-7.44Z"/><path class="cls-25" d="M1366.81,627.4s-7.09,1.87-16.56-2.69-16.49-18.43-12.18-30.46c4-11,9.55-11,9.55-11s7.45-20.17,32.1-9c17.19,7.76,19.37,27.19,4.53,38.31S1366.81,627.4,1366.81,627.4Z"/><path class="cls-25" d="M1375.71,612.43s0,10.73,1.17,11.39,2.32-14.28,2.32-14.28Z"/><path class="cls-28" d="M1375.92,619s.12-5.34-3.74-4.13-2.24,5.8.13,7.15S1375.92,619,1375.92,619Z"/><path class="cls-28" d="M1264.64,695c-12.28,3.48-53.2-31.23-53.2-31.23s-13.62-6.37-16.22-11.37-2-8.17.07-11,4.82-4.74,8.28-3.48c3,1.09,6.68,5.33,6.68,5.33l-1.9-1.55s2-3.39,5.6-.13c6.44,5.8,6,10.59,7.58,11.79,3.85,2.88,48.16,18,49.33,16.89C1270.86,670.28,1276.92,691.49,1264.64,695Z"/><path class="cls-33" d="M1264.64,695c-12.28,3.48-52.39-28.42-52.39-28.42l10.45-13.78c3.85,2.88,47,18.62,48.16,17.5C1270.86,670.28,1276.92,691.49,1264.64,695Z"/><path class="cls-17" d="M1319,638.08c-10.49,2.42-46.58,32.33-48.11,32.2s-25.91,16-15.16,22.92,42.63-3,61.86-13.63a24.44,24.44,0,0,0,8.4-7h0s5.42-6.14,7-17.55C1334.36,644.62,1329.46,635.65,1319,638.08Z"/><path class="cls-32" d="M1369.86,703.69s5.12-13.89,7.59-22.82,5.34-27.52,4.47-34.21a56.92,56.92,0,0,0-1-7,24.11,24.11,0,0,0-8-1.25,97.88,97.88,0,0,1-.7,22.17c-3.18,20.27-12.48,38.52-12.48,38.52s-1.3-8-2.35-18.25-6.32-28-9.6-34.21a126.72,126.72,0,0,0-7.81-12,18.62,18.62,0,0,0-10,1.06h0s7.16,5.48,12.31,18.93,5.46,46.36,5.46,46.36-5.4,4-18.85,8.31c-7.6,2.45-16.32,2.73-22.47,2.51-.11,3.36-.2,7-.25,11-.24,17.81-7.73,29.51-7.73,29.51s20.7,12.34,40.38,14,33.63,1.37,33.63,1.37a403.43,403.43,0,0,0,16.43-46C1374.47,715.55,1369.86,703.69,1369.86,703.69Z"/><path class="cls-31" d="M1357,971.46l5.53,15.16c-3.64,3.53-36.28,12.29-37.85,11.61s17.51-19,17.51-19Z"/><path class="cls-32" d="M1276.08,922l5.53,15.16c-3.65,3.52-36.28,12.29-37.85,11.61s17.5-19,17.5-19Z"/><path class="cls-27" d="M1359.94,568a29.49,29.49,0,0,1,33,19.51c5.63.6,9.28,2.07,9.68,4.32.84,4.8-13.35,11.29-31.69,14.49s-33.88,1.91-34.71-2.89C1333.37,587.42,1343.88,570.84,1359.94,568Z"/><path class="cls-36" d="M1335.86,600.88c15.63,5.61,33.42,2.78,49.2-2s13.8-9.85,13.68-10.13c2.22.76,3.61,1.81,3.84,3.13.84,4.8-13.35,11.29-31.69,14.49s-33.88,1.91-34.71-2.89A25.43,25.43,0,0,1,1335.86,600.88Z"/><path class="cls-36" d="M1392.9,587.55s-5.5-16.23-20.62-20.32-23.27,5.31-23.27,5.31,13.78-4.35,23.17-1.15c10.51,3.59,17.35,17.51,17.35,17.51A15.1,15.1,0,0,0,1392.9,587.55Z"/></g></g></svg>